<?xml version="1.0" encoding="UTF-8"?>
<svg width="505px" height="125px" viewBox="0 0 505 125" version="1.1" xmlns="http://www.w3.org/2000/svg" xmlns:xlink="http://www.w3.org/1999/xlink">
    <!-- Generator: Sketch 54.1 (76490) - https://sketchapp.com -->
    <title>SoftbayX-H</title>
    <desc>Created with Sketch.</desc>
    <g id="SoftbayX-H" stroke="none" stroke-width="1" fill="none" fill-rule="evenodd">
        <g id="SOFTBAYX---Horizontal" transform="translate(5.000000, 9.000000)" fill-rule="nonzero">
            <path d="M137.638474,57.4504881 C136.563459,57.4504881 135.546049,57.2395419 134.586213,56.817643 C133.626378,56.3957441 132.788135,55.8332206 132.071458,55.1300558 C131.354781,54.426891 130.791686,53.5958904 130.382156,52.6370293 C129.972626,51.6781681 129.767864,50.6617906 129.767864,49.5878661 L129.767864,33.862622 C129.767864,32.7886976 129.972626,31.77232 130.382156,30.8134589 C130.791686,29.8545977 131.354781,29.0235972 132.071458,28.3204324 C132.788135,27.6172675 133.626378,27.0547441 134.586213,26.6328452 C135.546049,26.2109463 136.563459,26 137.638474,26 L164.360155,26 C165.43517,26 166.45258,26.2109463 167.412415,26.6328452 C168.372251,27.0547441 169.210494,27.6172675 169.927171,28.3204324 C170.643848,29.0235972 171.206943,29.8545977 171.616473,30.8134589 C172.026003,31.77232 172.230764,32.7886976 172.230764,33.862622 L172.230764,40.958159 L164.360155,40.958159 L164.360155,33.862622 L137.638474,33.862622 L137.638474,49.5878661 L164.360155,49.5878661 C165.43517,49.5878661 166.45258,49.7924201 167.412415,50.2015342 C168.372251,50.6106483 169.210494,51.1731717 169.927171,51.8891213 C170.643848,52.605071 171.206943,53.4424638 171.616473,54.401325 C172.026003,55.3601861 172.230764,56.3765637 172.230764,57.4504881 L172.230764,73.137378 C172.230764,74.2113024 172.026003,75.22768 171.616473,76.1865411 C171.206943,77.1454023 170.643848,77.9827951 169.927171,78.6987448 C169.210494,79.4146944 168.372251,79.9772179 167.412415,80.3863319 C166.45258,80.795446 165.43517,81 164.360155,81 L136.87061,81 C135.795594,81 134.778184,80.795446 133.818349,80.3863319 C132.858514,79.9772179 132.02027,79.4146944 131.303593,78.6987448 C130.586916,77.9827951 130.023821,77.1454023 129.614292,76.1865411 C129.204762,75.22768 129,74.2113024 129,73.137378 L129,66.0801953 L136.87061,66.0801953 L136.87061,73.137378 L164.360155,73.137378 L164.360155,57.4504881 L137.638474,57.4504881 Z M223.411325,74.6116196 C223.411325,75.4841832 223.244956,76.30999 222.912213,77.0890647 C222.57947,77.8681394 222.121955,78.548521 221.539655,79.1302301 C220.957355,79.7119392 220.276282,80.1689895 219.496416,80.5013947 C218.71655,80.8337999 217.889904,81 217.016454,81 L191.468167,81 C190.594717,81 189.768071,80.8337999 188.988205,80.5013947 C188.208339,80.1689895 187.527266,79.7119392 186.944966,79.1302301 C186.362666,78.548521 185.905151,77.8681394 185.572408,77.0890647 C185.239665,76.30999 185.073296,75.4841832 185.073296,74.6116196 L185.073296,42.7008804 C185.073296,41.8283168 185.239665,41.00251 185.572408,40.2234353 C185.905151,39.4443606 186.362666,38.7691727 186.944966,38.1978513 C187.527266,37.6265299 188.208339,37.1694796 188.988205,36.8266867 C189.768071,36.4838939 190.594717,36.3125 191.468167,36.3125 L217.016454,36.3125 C217.889904,36.3125 218.71655,36.4838939 219.496416,36.8266867 C220.276282,37.1694796 220.957355,37.6265299 221.539655,38.1978513 C222.121955,38.7691727 222.57947,39.4443606 222.912213,40.2234353 C223.244956,41.00251 223.411325,41.8283168 223.411325,42.7008804 L223.411325,74.6116196 Z M191.468167,42.7008804 L191.468167,74.6116196 L217.016454,74.6116196 L217.016454,42.7008804 L191.468167,42.7008804 Z M234.890897,36.3125 L267.48914,36.3125 L267.48914,42.7008804 L241.285768,42.7008804 L241.285768,55.4776412 L263.652217,55.4776412 L263.652217,61.8660216 L241.285768,61.8660216 L241.285768,81 L234.890897,81 L234.890897,36.3125 Z M272.573842,36.3125 L308.353922,36.3125 L308.353922,42.7008804 L293.661317,42.7008804 L293.661317,81 L287.266446,81 L287.266446,42.7008804 L272.573842,42.7008804 L272.573842,36.3125 Z M345.16342,57.6902022 C346.09926,57.9810568 346.951901,58.396557 347.721369,58.9367155 C348.490837,59.4768739 349.145914,60.1676431 349.686622,61.0090438 C350.227329,61.8504444 350.643251,62.8424513 350.934401,63.9850941 C351.225551,65.127737 351.371124,66.4365628 351.371124,67.9116109 L351.371124,70.1553347 C351.371124,77.3851477 347.752599,81 340.515441,81 L316.027767,81 L316.027767,36.3125 L339.236467,36.3125 C346.473625,36.3125 350.09215,39.9377398 350.09215,47.1883281 L350.09215,47.9985617 C350.09215,50.512376 349.691825,52.5639085 348.891162,54.1532209 C348.090499,55.7425332 346.847931,56.9215152 345.16342,57.6902022 Z M322.297859,61.5232305 L322.297859,74.7362709 L340.328274,74.7362709 C342.012785,74.7362709 343.229358,74.3415457 343.97803,73.5520833 C344.726701,72.762621 345.101032,71.5265077 345.101032,69.8437064 L345.101032,66.3846321 C345.101032,64.6810555 344.726701,63.4449422 343.97803,62.6762552 C343.229358,61.9075682 342.012785,61.5232305 340.328274,61.5232305 L322.297859,61.5232305 Z M322.297859,42.5762291 L322.297859,55.2906642 L339.486023,55.2906642 C341.024959,55.2283383 342.132352,54.8076442 342.808236,54.0285696 C343.48412,53.2494949 343.822057,52.0497379 343.822057,50.4292626 L343.822057,47.4999564 C343.822057,45.7963798 343.447727,44.549879 342.699056,43.7604167 C341.950384,42.9709543 340.733811,42.5762291 339.0493,42.5762291 L322.297859,42.5762291 Z M380.756334,36.3125 L398.006887,81 L391.612017,81 L387.650316,70.7162657 L367.467481,70.7162657 L363.505781,81 L357.11091,81 L374.361463,36.3125 L380.756334,36.3125 Z M369.900651,64.3278853 L385.185952,64.3278853 L377.574496,44.6329759 L369.900651,64.3278853 Z M403.528312,36.3125 L416.536414,57.1915969 L429.575711,36.3125 L437,36.3125 L419.749447,63.268349 L419.749447,81 L413.354576,81 L413.354576,63.268349 L396.104023,36.3125 L403.528312,36.3125 Z" id="SOFTBAY" fill="#0065A3"></path>
            <polygon id="X" fill="#85BF46" points="455.838132 31 470.442802 51.5962343 485.123735 31 494.580545 31 475.209339 58.2698745 495 86 485.543191 86 470.442802 64.8668061 455.456809 86 446 86 465.790661 58.2698745 446.419455 31"></polygon>
            <g id="Group-3">
                <path d="M42.3768734,7.85454545 C42.2635862,7.85454545 42.1496246,7.83946665 42.0363374,7.8074996 C41.4395562,7.63982337 41.1077865,7.07044802 41.2959242,6.5366586 C41.3512192,6.37923595 42.6695323,2.6499479 44.0363969,0.511171347 C44.3465881,0.0250309334 45.0391238,-0.144454744 45.5819587,0.134201424 C46.125468,0.411651287 46.31428,1.03048511 46.0034145,1.51662552 C44.7565804,3.46842499 43.4699608,7.10844658 43.4571483,7.14523885 C43.3047499,7.57769872 42.8583443,7.85454545 42.3768734,7.85454545" id="Fill-96" fill="#C43035"></path>
                <path d="M41.3398085,10.8 C40.9380624,10.8 40.5747029,10.4844162 40.4805766,10.0164608 C40.4605946,9.91829253 40.0020571,7.58393592 40.4732147,4.75090867 C40.564712,4.20225054 41.0258786,3.83969049 41.5070275,3.94568811 C41.9860732,4.05048121 42.3005289,4.5804693 42.2095575,5.12912743 C41.8109664,7.52611904 42.1985148,9.54368731 42.2027214,9.56356187 C42.309994,10.1080042 42.0128911,10.6500374 41.5375266,10.7741029 C41.4717958,10.7915684 41.4050133,10.8 41.3398085,10.8" id="Fill-97" fill="#C43035"></path>
                <path d="M51.3890639,59.9200441 C52.7129491,64.0963408 54.8850246,67.7131279 57.6286668,70.6909091 C61.3554523,70.4414963 65.1078854,69.4699399 68.6875046,67.6730763 C81.1538865,61.4159134 87.3385311,46.8929353 83.142157,33.6546452 C83.0047612,33.2201452 82.8575949,32.7917138 82.7018798,32.3693507 C80.256234,25.7383721 72.4942853,22.6477184 66.1172866,25.7662869 C66.0262999,25.8105865 65.9353137,25.8560998 65.844327,25.901613 C53.3779451,32.158776 47.1933006,46.6817538 51.3890639,59.9200441" id="Fill-98" fill="#DF4C4A"></path>
                <path d="M81.7110733,46.7181929 C80.2796654,46.3614301 79.4101181,44.9204958 79.7688824,43.4988784 L80.2966913,41.4114247 L79.1218907,41.2363636 L54.009009,64.5762436 C54.3744621,65.2444944 54.7581572,65.8982573 55.170432,66.5266666 C58.1390531,67.019856 63.1015517,67.7074238 67.8798037,67.7454545 C68.2707958,67.5703931 68.6611798,67.3905029 69.0485233,67.1961244 C77.5816374,62.9179916 83.154035,54.7535009 84.4504505,45.7909723 C83.8180526,46.5805585 82.7612186,46.9795774 81.7110733,46.7181929" id="Fill-99" fill="#0065A3"></path>
                <path d="M33.4597509,70.6909091 L24.7825621,100.541331 C23.6962998,104.278235 26.5444341,108 30.4911257,108 C32.3599641,108 34.1199918,107.133445 35.2412948,105.660726 L61.8648649,70.6909091 L33.4597509,70.6909091" id="Fill-100" fill="#C43035"></path>
                <path d="M37.2318359,75.6 C37.2318359,75.6 34.3812143,90.503679 38.8349657,91.2823138 C43.2881055,92.0609486 55.972973,75.6 55.972973,75.6 L37.2318359,75.6" id="Fill-101" fill="#0065A3"></path>
                <polygon id="Fill-102" fill="#C43035" points="52.045045 35.3454545 72.6666667 35.3454545 72.6666667 16.6909091 52.045045 16.6909091"></polygon>
                <path d="M51.28142,73.6363636 L33.3873874,73.6363636 L33.3873874,42.4142068 C33.3873874,31.461503 42.3313464,22.5818182 53.3646953,22.5818182 L66.6641489,22.5818182 C74.860281,22.5818182 81.5045045,29.1778433 81.5045045,37.3145192 L81.5045045,43.6325228 C81.5045045,60.2033213 67.9733042,73.6363636 51.28142,73.6363636" id="Fill-103" fill="#C43035"></path>
                <path d="M74.6306306,27.4909091 L51.9879277,27.4909091 C45.5119442,27.4909091 40.2612613,22.1977834 40.2612613,15.6688446 L40.2612613,11.821456 C40.2612613,5.29251721 45.5119442,0 51.9879277,0 L61.1354275,0 C68.588633,0 74.6306306,6.09083664 74.6306306,13.6048968 L74.6306306,27.4909091" id="Fill-104" fill="#C43035"></path>
                <path d="M53.4845657,9.51771263 L53.4845657,9.51771263 C53.4845657,10.210265 53.189049,10.8676655 52.6778054,11.310455 L49.0990991,14.4105981 L49.9259545,20.4554762 L57.4291211,23.5636364 L59.7536549,22.0792432 C62.2850499,20.4622599 63.8288288,17.5884451 63.8288288,14.4913856 C63.8288288,12.7239278 62.9511447,11.0828933 61.5090236,10.1547621 L60.5184517,9.51771263 C60.5184517,7.51467609 58.9622615,5.89090909 57.0425854,5.89090909 L56.9598409,5.89090909 C55.0407559,5.89090909 53.4845657,7.51467609 53.4845657,9.51771263" id="Fill-105" fill="#FFFFFE"></path>
                <path d="M56.302831,27.4909091 C58.5921127,25.5834101 58.0327019,22.9454847 57.2753455,22.3082122 C56.3864353,21.5598952 53.0004623,19.5444363 51.9677037,18.7955023 C50.9349451,18.0471853 50.1314831,17.0681423 50.1314831,15.6862544 C50.1314831,14.3037495 50.6048309,10.9637756 48.6253771,8.84775957 C47.4377046,7.57815 43.7419037,7.88784096 43.7419037,7.88784096 C42.5868125,7.98778105 41.9302732,8.66206838 41.0075525,9.10686357 C40.7794847,10.0316181 40.2612613,10.6096668 40.2612613,11.6047495 L40.2612613,15.5054985 C40.2612613,22.1249887 45.6088609,27.4909091 52.2043776,27.4909091 L56.302831,27.4909091" id="Fill-106" fill="#171A1A"></path>
                <path d="M52.045045,43.6159831 L52.045045,37.1631725 C52.045045,30.9964352 47.8116478,25.8458981 42.1491725,24.5454545 C29.9921381,34.0413761 23.5675676,72.6545455 23.5675676,72.6545455 C39.2952037,72.6545455 52.045045,59.6537698 52.045045,43.6159831" id="Fill-107" fill="#DF4C4A"></path>
                <path d="M43.104549,7.86701621 C43.104549,7.86701621 39.0281846,9.66025728 37.6912218,13.9339479 C36.5026717,17.734656 38.331642,24.1006618 40.3981972,26.4041942 C42.4647525,28.7071249 43.6869762,28.7071249 44.0941761,28.2016476 C44.5019996,27.6955685 42.8719524,25.2807107 44.4433827,22.3597737 C46.0154365,19.4388368 47.87808,17.4163257 46.8298364,12.8664278 C45.7822163,8.31652999 44.0941761,7.75508909 43.104549,7.86701621" id="Fill-108" fill="#B3B5B1"></path>
                <path d="M59.9009009,9.81818182 C59.9009009,10.9026158 59.02141,11.7818182 57.9372538,11.7818182 C56.8524639,11.7818182 55.972973,10.9026158 55.972973,9.81818182 C55.972973,8.7337478 56.8524639,7.85454545 57.9372538,7.85454545 C59.02141,7.85454545 59.9009009,8.7337478 59.9009009,9.81818182" id="Fill-109" fill="#171A1A"></path>
                <path d="M51.7525296,41.7376971 C51.430703,43.0003694 50.152967,43.7620674 48.8985607,43.4381197 C47.6435562,43.1141724 46.8874428,41.8280167 47.2086712,40.5653444 L47.7374721,38.489793 L47.7237137,38.4928034 C47.7895146,37.746761 47.3163456,37.0416637 46.5727946,36.8495832 C45.8077082,36.6520836 45.0354436,37.0717701 44.7560887,37.7943295 L43.6948979,41.9622926 C43.3730709,43.2249649 42.0953354,43.9866629 40.8403308,43.6627152 C39.5859241,43.3393701 38.8298108,42.0526123 39.1510396,40.7899399 L39.8419502,38.0773318 C39.9388569,37.3108169 39.4626971,36.5732043 38.6994054,36.3763068 C37.8727054,36.1631519 37.0304527,36.6647285 36.818693,37.496876 L36.6188973,38.2826591 L36.6182991,38.2826591 L35.2735659,43.5639656 C34.9523374,44.8272401 33.6740034,45.5883359 32.419597,45.2649908 C31.6234048,45.0596635 31.0311958,44.4653583 30.7841429,43.7367775 C26.0297214,57.0836523 23.5675676,71.6727273 23.5675676,71.6727273 C39.2952037,71.6727273 52.045045,58.8388694 52.045045,43.0069929 L52.045045,40.5876234 L51.7525296,41.7376971" id="Fill-110" fill="#0065A3"></path>
                <path d="M46.9226404,36.8518678 C46.1327766,36.6535043 45.3355019,37.0750265 45.0471,37.8007463 L43.9515423,41.9869397 C43.6192928,43.2551349 42.3001775,44.0201644 41.0045293,43.6947998 C39.7094983,43.3700404 38.928898,42.0776544 39.2605299,40.8094593 L39.9738158,38.0849864 C40.0738609,37.3151188 39.5822805,36.5742799 38.7942694,36.3765213 C37.9407965,36.162434 37.0712672,36.6662045 36.8526497,37.5019918 L36.6463835,38.2912118 L36.6457659,38.2912118 L35.2574832,43.5956183 C34.9258516,44.8644183 33.6061184,45.628843 32.3110877,45.3040836 C31.4891107,45.0978582 30.8777228,44.5009535 30.622669,43.7691861 C27.8090497,51.4533487 25.7747955,59.5420995 24.5495495,65.0515218 L24.5526373,65.0497078 L25.1881102,62.6221751 C25.4067277,61.7863881 26.2762571,61.2820129 27.1297299,61.4967048 C27.9615879,61.7053494 28.4661373,62.5199696 28.2888966,63.3351949 L28.3395368,63.3116088 L28.1264774,64.1250197 C27.8306644,65.2559329 28.5266585,66.4074084 29.6815023,66.6970913 C30.8320231,66.985565 32.0023059,66.3094361 32.3036769,65.1857802 L34.0600275,58.4765014 C34.278645,57.6401092 35.1481744,57.1363388 36.0016472,57.3504263 C36.85512,57.5651182 37.3695503,58.4160244 37.150933,59.2524166 L36.525341,61.641244 C36.2319984,63.0334163 37.0947347,64.4201459 38.5163659,64.7769582 C39.9799914,65.1446561 41.4707897,64.2804446 41.8462683,62.8471482 L43.5519786,56.3295803 L43.5593893,56.3259519 L43.8181485,55.3123632 L44.3671624,53.2144286 C44.378896,53.1696757 44.378896,53.1255279 44.3881595,53.080775 L47.5791101,40.585091 C47.5791101,40.5844862 47.5791101,40.5838814 47.5791101,40.5838814 L47.5840509,40.5663433 L48.1108324,38.5022753 C48.1787643,37.7529698 47.6902715,37.0447883 46.9226404,36.8518678" id="Fill-111" fill="#85BF46"></path>
                <polyline id="Fill-112" fill="#FBD02B" points="44.1907079 40.2487684 44.1876704 40.2603225 44.1907079 40.2487684"></polyline>
                <path d="M29.1569547,48.9904422 C28.1390674,52.1849543 27.2566939,55.330892 26.5135135,58.2129691 C26.8078424,58.5026159 27.1769798,58.7262978 27.6105018,58.8354401 C28.800081,59.1334827 30.0000844,58.5008172 30.4354458,57.4099935 L32.0180767,51.3717839 C32.3338671,50.1688196 33.5866044,49.443203 34.8166538,49.7520396 C36.0467032,50.060277 36.7880441,51.2854296 36.4728669,52.4883939 L36.195094,53.5468348 C35.9866111,54.7414034 36.7353102,55.9119849 37.956775,56.2184231 C39.2426242,56.5404528 40.5523878,55.7824533 40.8822813,54.5243181 L42.0436543,50.0920601 L42.0503993,50.0890615 L44.1891892,41.9519613 C44.0217896,42.5768308 43.6121818,43.0775663 43.0842293,43.3816056 C43.0762578,43.3858036 43.0670603,43.3882025 43.0590888,43.3929998 C42.933999,43.4631625 42.8040038,43.5243302 42.6678765,43.5717052 C42.6323117,43.5836991 42.5942944,43.5878968 42.5581164,43.5986909 C42.4471299,43.6316738 42.3355301,43.6646563 42.219025,43.6814473 C42.1423768,43.6928415 42.0620497,43.6892432 41.9835619,43.6928415 C41.9050744,43.6970391 41.827813,43.7078333 41.748712,43.7042354 C41.5892838,43.6964394 41.4286292,43.6730516 41.267975,43.6328729 C39.9821254,43.3108432 39.2070594,42.0293202 39.53634,40.7717847 L40.244569,38.0702121 C40.3439048,37.3068156 39.8558096,36.5722037 39.0733853,36.3761074 C38.2259632,36.1638195 37.3625986,36.6633556 37.145531,37.4921178 L36.9407272,38.2747041 L36.940114,38.2747041 L35.5616738,43.534525 C35.2323933,44.7926602 33.9220167,45.5506597 32.6361674,45.22863 C31.8200179,45.0241379 31.2129646,44.4322505 30.9597191,43.7066339 C30.3171011,45.4589083 29.7259906,47.2291728 29.1661525,48.9880434 C29.1630866,48.9886431 29.1600207,48.9898425 29.1569547,48.9904422" id="Fill-113" fill="#FBD02B"></path>
                <path d="M45.9035571,57.8829557 L45.9035571,57.8829557 C44.7465822,57.6404013 43.9984092,56.4686766 44.231839,55.2664769 L45.8490901,46.9449917 C46.08252,45.7434144 47.2095682,44.9653739 48.3665428,45.2079286 C49.5235178,45.4511049 50.2722894,46.6222076 50.0382609,47.8244073 L48.4216084,56.1458925 C48.18758,57.3480918 47.0605321,58.1255104 45.9035571,57.8829557" id="Fill-114" fill="#85BF46"></path>
                <path d="M32.4620454,39.2727273 C32.2665007,39.2727273 32.0684809,39.2192491 31.8921194,39.1081332 C31.4125401,38.8056848 31.2788766,38.1865264 31.5944708,37.7260201 C33.612417,34.7769963 38.2640274,29.9758456 38.4608097,29.7726285 C38.8518989,29.3691655 39.5096963,29.3459916 39.9304886,29.7233098 C40.350662,30.0988453 40.3735578,30.731076 39.9818497,31.1339449 C39.9348201,31.1826694 35.2535067,36.0147186 33.3320952,38.8223222 C33.1322188,39.1140755 32.8005356,39.2727273 32.4620454,39.2727273" id="Fill-115" fill="#DF4C4A"></path>
                <path d="M85.4128323,38.2909091 C84.9692581,38.2909091 84.5637895,37.9855638 84.4458998,37.5251032 C83.98625,35.7272305 81.6070253,32.2811044 80.7288081,31.1049146 C80.3930016,30.6548358 80.4757622,30.0105574 80.9145732,29.666128 C81.3521934,29.3216986 81.9809373,29.4065845 82.3173393,29.8566634 C82.6650537,30.3226202 85.7373259,34.4832541 86.3815503,37.0041842 C86.52147,37.553195 86.2017392,38.1138086 85.6670687,38.2573212 C85.581926,38.2799164 85.4967837,38.2909091 85.4128323,38.2909091" id="Fill-116" fill="#DF4C4A"></path>
                <path d="M50.239231,58.9090909 C50.0709087,58.9090909 49.8998718,58.8755888 49.7390155,58.8049299 C49.172964,58.5564045 48.9388058,57.9436189 49.2150444,57.4356039 C50.2690945,55.5022228 50.6776834,47.9356006 50.7469127,45.1829386 C50.760487,44.617056 51.2539158,44.1583806 51.912273,44.1827461 C52.5421241,44.1949286 53.0409825,44.6633502 53.026729,45.2286233 C53.000938,46.2872925 52.7260569,55.6514597 51.264775,58.3346808 C51.0665892,58.6977226 50.6607153,58.9090909 50.239231,58.9090909" id="Fill-117" fill="#0065A3"></path>
                <path d="M79.5564581,61.8545455 C79.3954011,61.8545455 79.2319668,61.8144369 79.0810133,61.7305734 C78.5960594,61.4613598 78.416579,60.8414993 78.6798567,60.345611 C80.1650274,57.5489471 81.4730952,50.0109593 81.4861699,49.934996 C81.5824476,49.3795526 82.1024653,49.0100673 82.6426897,49.1060848 C83.1858855,49.2039256 83.5484122,49.7332378 83.4533232,50.2886813 C83.3980526,50.6113733 82.0745332,58.2314014 80.4348425,61.3203717 C80.2535791,61.6612952 79.9106645,61.8545455 79.5564581,61.8545455" id="Fill-118" fill="#0065A3"></path>
                <path d="M47.0476013,109.108213 C49.2032646,109.108213 50.8559152,108.592561 52.0056022,107.561242 C53.1552893,106.529922 53.730124,104.992883 53.730124,102.950077 C53.730124,102.335252 50.9534389,88.3509988 50.8815831,87.6370084 C50.8097278,86.9230176 50.7378735,86.1941636 50.6660181,85.4504235 C50.5941627,84.7066834 50.5223081,83.9679128 50.4504527,83.2340893 C50.3785973,82.5002657 50.34267,81.8061188 50.34267,81.1516276 C50.34267,79.0691555 50.6762798,77.2891644 51.3435089,75.8116011 C52.010738,74.3340374 53.0834209,73.1688625 54.5615899,72.3160404 C53.0834209,71.4830517 52.010738,70.3277926 51.3435089,68.8502293 C50.6762798,67.3726656 50.34267,65.5827584 50.34267,63.4804532 C50.34267,62.8259619 50.3785973,62.131815 50.4504527,61.3979914 C50.5223081,60.6641683 50.5941627,59.9253973 50.6660181,59.1816576 C50.7378735,58.4379175 50.8097278,57.7090631 50.8815831,56.9950727 C50.9534389,56.2810823 50.9893659,55.6166845 50.9893659,55.0018595 C50.9893659,52.9590534 53.5248294,40.7477631 52.3751424,39.7263603 C51.2254554,38.7049574 49.5728051,38.1942634 47.4171418,38.1942634 L46.5240856,38.1942634 L46.5240856,32.3931204 L47.4171418,32.3931204 C49.3675037,32.3931204 51.1433329,32.6608628 52.7446829,33.1963556 C54.3460329,33.7318484 55.7112658,34.5053264 56.8404226,35.5168128 C57.9695795,36.5282993 58.842097,37.762889 59.4580006,39.2206195 C60.0739045,40.6783501 57.2715531,53.0185532 57.2715531,54.8828616 C57.2715531,55.596852 57.2407585,56.3604135 57.1791682,57.1735693 C57.1175776,57.9867251 57.0457233,58.7949106 56.9636028,59.5981499 C56.8814823,60.4013891 56.8096281,61.1599924 56.7480374,61.8739828 C56.6864471,62.5879732 56.6556526,63.2027889 56.6556526,63.7184488 C56.6556526,64.8489337 56.7634341,65.7810737 56.9790003,66.5148972 C57.1945668,67.2487208 57.5435737,67.8288294 58.0260316,68.2552401 C58.5084895,68.6816512 59.1243839,68.9791426 59.8737335,69.1477237 C60.6230832,69.3163049 61.5212629,69.4005941 62.5682992,69.4005941 L62.8454545,69.4005941 L62.8454545,75.2314866 L62.5682992,75.2314866 C61.5212629,75.2314866 60.6230832,75.3157759 59.8737335,75.484357 C59.1243839,75.6529381 58.5084895,75.9504295 58.0260316,76.3768406 C57.5435737,76.8032517 57.1945668,77.3833599 56.9790003,78.1171835 C56.7634341,78.851007 56.6556526,79.7831474 56.6556526,80.9136322 C56.6556526,81.4292918 56.6864471,82.049066 56.7480374,82.7729729 C56.8096281,83.4968799 56.8814823,84.2604414 56.9636028,85.0636806 C57.0457233,85.8669198 57.1175776,86.6751053 57.1791682,87.4882608 C57.2407585,88.3014166 60.0123112,102.374917 60.0123112,103.069075 C60.0123112,104.933383 59.704364,106.594377 59.0884604,108.052108 C58.4725565,109.509838 57.6000393,110.744428 56.4708821,111.755915 C55.3417253,112.767401 53.9764924,113.540879 52.3751424,114.076372 C50.7737928,114.611864 48.9979635,114.879607 47.0476013,114.879607 L46.1545455,114.879607 L46.1545455,109.108213 L47.0476013,109.108213 Z" id="}" fill="#A96237" transform="translate(54.500000, 73.636364) rotate(90.000000) translate(-54.500000, -73.636364) "></path>
                <path d="M45.1711712,79.5272727 L45.1711712,79.5272727 C44.0868621,79.5272727 43.2072072,78.6224914 43.2072072,77.5058351 L43.2072072,68.7850744 C43.2072072,67.6684177 44.0868621,66.7636364 45.1711712,66.7636364 C46.2560787,66.7636364 47.1351351,67.6684177 47.1351351,68.7850744 L47.1351351,77.5058351 C47.1351351,78.6224914 46.2560787,79.5272727 45.1711712,79.5272727" id="Fill-121" fill="#171A1A"></path>
                <path d="M41.2435427,79.5272727 L41.2435427,79.5272727 C40.1584696,79.5272727 39.2792793,78.6224914 39.2792793,77.5058351 L39.2792793,68.7850744 C39.2792793,67.6684177 40.1584696,66.7636364 41.2435427,66.7636364 C42.3280169,66.7636364 43.2072072,67.6684177 43.2072072,68.7850744 L43.2072072,77.5058351 C43.2072072,78.6224914 42.3280169,79.5272727 41.2435427,79.5272727" id="Fill-122" fill="#171A1A"></path>
                <path d="M49.0993985,79.5272727 L49.0993985,79.5272727 C48.0143255,79.5272727 47.1351351,78.6224914 47.1351351,77.5058351 L47.1351351,68.7850744 C47.1351351,67.6684177 48.0143255,66.7636364 49.0993985,66.7636364 C50.1838727,66.7636364 51.0630631,67.6684177 51.0630631,68.7850744 L51.0630631,77.5058351 C51.0630631,78.6224914 50.1838727,79.5272727 49.0993985,79.5272727" id="Fill-123" fill="#171A1A"></path>
                <path d="M67.7567569,79.5272727 L67.7567569,79.5272727 C66.6718492,79.5272727 65.7927928,78.6224914 65.7927928,77.5058351 L65.7927928,68.7850744 C65.7927928,67.6684177 66.6718492,66.7636364 67.7567569,66.7636364 C68.8410659,66.7636364 69.7207207,67.6684177 69.7207207,68.7850744 L69.7207207,77.5058351 C69.7207207,78.6224914 68.8410659,79.5272727 67.7567569,79.5272727" id="Fill-124" fill="#171A1A"></path>
                <path d="M63.8285296,79.5272727 L63.8285296,79.5272727 C62.7440553,79.5272727 61.8648649,78.6224914 61.8648649,77.5058351 L61.8648649,68.7850744 C61.8648649,67.6684177 62.7440553,66.7636364 63.8285296,66.7636364 C64.9136027,66.7636364 65.7927928,67.6684177 65.7927928,68.7850744 L65.7927928,77.5058351 C65.7927928,78.6224914 64.9136027,79.5272727 63.8285296,79.5272727" id="Fill-125" fill="#171A1A"></path>
                <path d="M71.6843854,79.5272727 L71.6843854,79.5272727 C70.5999111,79.5272727 69.7207207,78.6224914 69.7207207,77.5058351 L69.7207207,68.7850744 C69.7207207,67.6684177 70.5999111,66.7636364 71.6843854,66.7636364 C72.7694582,66.7636364 73.6486486,67.6684177 73.6486486,68.7850744 L73.6486486,77.5058351 C73.6486486,78.6224914 72.7694582,79.5272727 71.6843854,79.5272727" id="Fill-126" fill="#171A1A"></path>
                <path d="M99.4179999,52.0363636 C95.7538011,52.2420205 92.2929096,54.363973 90.511637,57.9320627 C88.7303644,61.5007468 89.0884885,65.5954612 91.0865049,68.7272727 C94.7507034,68.5216155 98.2121792,66.3996633 99.9928675,62.8309792 C101.77414,59.2622952 101.416016,55.1675807 99.4179999,52.0363636" id="Fill-127" fill="#00834E"></path>
                <path d="M109,64.4842744 C106.493991,61.7389955 102.587299,60.3131033 98.5984616,61.0778473 C94.6096247,61.8425912 91.5672606,64.600674 90.3423423,68.061227 C92.8483513,70.8059239 96.7550438,72.2323981 100.743881,71.4676542 C104.732718,70.7029106 107.775082,67.9442457 109,64.4842744" id="Fill-128" fill="#009C65"></path>
                <path d="M17.9134951,51.0545455 C14.2492966,51.2602023 10.788405,53.3821549 9.00713245,56.9502445 C7.22585992,60.5189286 7.58398392,64.6136431 9.58200033,67.7454545 C13.2461989,67.5397973 16.7076747,65.4178451 18.488363,61.8491611 C20.2696356,58.280477 19.9115116,54.1857625 17.9134951,51.0545455" id="Fill-127" fill="#00834E" transform="translate(13.747748, 59.400000) scale(-1, 1) translate(-13.747748, -59.400000) "></path>
                <path d="M18.6576577,63.5024562 C16.1516485,60.7571773 12.2449561,59.3312851 8.25611921,60.0960291 C4.26728234,60.860773 1.22491841,63.6188559 0,67.0794088 C2.50600912,69.8241057 6.41270158,71.2505799 10.4015385,70.485836 C14.3903753,69.7210924 17.4327392,66.9624275 18.6576577,63.5024562" id="Fill-128" fill="#009C65" transform="translate(9.328829, 65.290909) scale(-1, 1) translate(-9.328829, -65.290909) "></path>
                <path d="M98.5793115,80.4931171 C95.93899,77.4089103 91.903817,76.11302 88.0954841,76.7327158 C86.7565738,80.2361989 87.320908,84.313585 89.9612291,87.3977918 C92.6015502,90.481999 96.6367235,91.7778894 100.445056,91.1581932 C101.783967,87.6541153 101.219633,83.5773243 98.5793115,80.4931171 Z" id="Fill-129" fill="#009C65"></path>
                <path d="M60.8828829,39.2727273 C60.3404546,39.2727273 59.9009009,38.8170498 59.9009009,38.2541191 L59.9009009,33.4180022 C59.9009009,32.8556772 60.3404546,32.4 60.8828829,32.4 C61.4253111,32.4 61.8648649,32.8556772 61.8648649,33.4180022 L61.8648649,38.2541191 C61.8648649,38.8170498 61.4253111,39.2727273 60.8828829,39.2727273" id="Fill-130" fill="#892228"></path>
                <path d="M69.7207207,41.2363636 C69.1782925,41.2363636 68.7387387,40.7867513 68.7387387,40.2319108 L68.7387387,35.3686867 C68.7387387,34.8138463 69.1782925,34.3636364 69.7207207,34.3636364 C70.263149,34.3636364 70.7027027,34.8138463 70.7027027,35.3686867 L70.7027027,40.2319108 C70.7027027,40.7867513 70.263149,41.2363636 69.7207207,41.2363636" id="Fill-131" fill="#892228"></path>
                <path d="M75.6123204,39.2727273 C75.0700536,39.2727273 74.6306306,38.7918108 74.6306306,38.1983391 L74.6306306,32.4932096 C74.6306306,31.8990984 75.0700536,31.4181818 75.6123204,31.4181818 C76.1551713,31.4181818 76.5945946,31.8990984 76.5945946,32.4932096 L76.5945946,38.1983391 C76.5945946,38.7918108 76.1551713,39.2727273 75.6123204,39.2727273" id="Fill-132" fill="#892228"></path>
                <path d="M59.091539,56.9454545 C59.0476259,56.9454545 59.004399,56.9436789 58.9604855,56.9389441 C58.3278609,56.8773903 57.8729475,56.3849605 57.9443062,55.8392627 L58.5844788,50.9558031 C58.6558379,50.4095134 59.2321986,50.0194761 59.8593342,50.0786623 C60.4919589,50.140808 60.9468726,50.6332377 60.8755136,51.1789351 L60.2353414,56.0623952 C60.1687851,56.5702135 59.6699587,56.9454545 59.091539,56.9454545" id="Fill-133" fill="#892228"></path>
                <path d="M66.9083941,54.9818182 C66.8652974,54.9818182 66.8215377,54.9793151 66.7771149,54.9743094 C66.165804,54.9067302 65.728869,54.3842447 65.8004758,53.8073207 L66.517871,48.0555999 C66.5901412,47.4793016 67.1431058,47.0669446 67.7544167,47.1345238 C68.3657279,47.2021026 68.8026625,47.7245881 68.7310558,48.3015121 L68.0136605,54.053233 C67.9466948,54.588233 67.465337,54.9818182 66.9083941,54.9818182" id="Fill-134" fill="#892228"></path>
                <path d="M72.6007815,56.9454545 C72.5332814,56.9454545 72.465237,56.9365915 72.3977369,56.9188646 C71.9045509,56.78908 71.5959017,56.2186609 71.7074942,55.6463425 L72.8239673,49.919993 C72.9355602,49.3464083 73.4260243,48.9868099 73.9181216,49.1178608 C74.4107629,49.2476455 74.7194125,49.8174314 74.6078196,50.390383 L73.4918912,56.1167324 C73.3955404,56.610547 73.018302,56.9454545 72.6007815,56.9454545" id="Fill-135" fill="#892228"></path>
            </g>
        </g>
    </g>
</svg>